<svg width="594" height="812" viewBox="0 0 594 812" fill="none" xmlns="http://www.w3.org/2000/svg">
<g clip-path="url(#clip0_102_579)">
<path d="M412 577.72C502.76 577.72 484 691.96 484.87 819H412V577.72Z" fill="#FDD2B2"/>
<path d="M434.74 650.87L412 689L423.38 819H455.14C455.91 638.73 434.74 650.87 434.74 650.87Z" fill="#F3AB98"/>
<path d="M35.2502 319C35.2502 171.68 154.68 52.25 302 52.25C449.32 52.25 568.75 171.68 568.75 319C568.788 358.694 559.949 397.895 542.88 433.731C525.811 469.568 500.945 501.135 470.1 526.12C464.627 530.573 458.98 534.803 453.16 538.81C393 577 317 577 248.39 570.89C241.73 569.89 235.09 568.63 228.5 567.18C202.17 561.38 176.68 552.43 153.13 539.38C147.31 535.793 141.667 531.92 136.2 527.76C130.706 523.576 125.432 519.11 120.4 514.38C115.64 509.96 111.044 505.367 106.61 500.6C60.6674 451.299 35.1614 386.39 35.2502 319V319Z" fill="#FDD2B2"/>
<path d="M71.6101 453.48C72.3101 454.68 73.0001 455.88 73.7201 457.06C74.1501 457.78 74.6001 458.48 75.0501 459.2C75.7101 460.27 76.3701 461.34 77.0501 462.39C77.5301 463.15 78.0501 463.89 78.5101 464.63C79.1701 465.63 79.8301 466.63 80.5101 467.63C81.0201 468.39 81.5101 469.15 82.0701 469.91C82.7301 470.91 83.3901 471.83 84.0701 472.79C84.6101 473.56 85.1701 474.32 85.7201 475.09C86.2701 475.86 87.0601 476.94 87.7201 477.86C88.3801 478.78 88.8701 479.39 89.4501 480.15C90.0301 480.91 90.8201 481.95 91.5201 482.85C92.2201 483.75 92.7101 484.36 93.3101 485.11C93.9101 485.86 94.7201 486.87 95.4301 487.74C96.1401 488.61 96.6601 489.23 97.2801 489.97C97.9001 490.71 98.7201 491.69 99.4501 492.54C100.18 493.39 100.72 494.01 101.36 494.74L103.58 497.24C104.23 497.97 104.89 498.68 105.58 499.4C106.44 500.34 107.31 501.27 108.18 502.19L109.39 503.47C110.68 504.81 111.98 506.15 113.3 507.47L113.56 507.74C114.85 509.02 116.16 510.29 117.47 511.55L119.05 513.05C120 513.94 120.95 514.83 121.91 515.71L123.07 516.77C124.07 517.71 125.16 518.63 126.21 519.55C129.477 522.397 132.81 525.127 136.21 527.74C141.67 531.9 147.313 535.773 153.14 539.36C176.69 552.36 202.14 561.36 228.51 567.16C235.1 568.61 241.74 569.86 248.4 570.87C290.5 574.62 335.4 576.05 377.68 567.79C310.45 548 -12.4099 431.74 190.8 76.48C188.08 77.73 185.4 79.02 182.74 80.36L182.15 80.65C180.93 81.26 179.71 81.89 178.5 82.53L177.5 83.06C173.74 85.06 170.02 87.13 166.37 89.29L165.47 89.82C164.31 90.51 163.16 91.21 162.01 91.92L161.14 92.46C157.567 94.6933 154.05 97.0033 150.59 99.39L149.51 100.14C148.42 100.9 147.35 101.66 146.28 102.43L145.62 102.9C143.44 104.493 141.287 106.107 139.16 107.74L138.54 108.22C137.54 109 136.54 109.8 135.54 110.61L134.37 111.55C133.37 112.36 132.37 113.17 131.37 114C129.26 115.75 127.18 117.55 125.13 119.37L123.99 120.37L121.3 122.82L120 124C117.147 126.667 114.357 129.39 111.63 132.17L110.25 133.58C109.46 134.4 108.67 135.22 107.89 136.05C107.43 136.54 106.97 137.05 106.52 137.53C105.147 138.997 103.793 140.483 102.46 141.99C102.01 142.5 101.55 142.99 101.1 143.53C100.39 144.34 99.6901 145.16 98.9901 145.98L97.4801 147.77C96.8001 148.58 96.1201 149.39 95.4801 150.21C94.9401 150.87 94.4001 151.54 93.8701 152.21C92.8001 153.54 91.7501 154.87 90.7101 156.21C90.1701 156.91 89.6301 157.61 89.1001 158.32C88.5701 159.03 87.9001 159.91 87.3101 160.72C86.7201 161.53 86.2401 162.17 85.7201 162.9C85.2001 163.63 84.5901 164.45 84.0401 165.23C83.0934 166.563 82.1601 167.913 81.2401 169.28C80.7401 170.01 80.2401 170.76 79.7501 171.5C79.2601 172.24 78.6501 173.16 78.1101 174L76.6201 176.31L74.9401 179.02C74.5101 179.71 74.0801 180.4 73.6601 181.09C72.7701 182.55 71.9101 184.02 71.0501 185.49L69.8301 187.65C69.2901 188.6 68.7501 189.56 68.2201 190.52C67.8201 191.25 67.4201 191.98 67.0301 192.71C66.3901 193.9 65.7601 195.1 65.1301 196.3L63.9301 198.64C63.2901 199.92 62.6501 201.19 62.0201 202.48C61.6901 203.17 61.3501 203.87 61.0201 204.57C60.5001 205.66 60.0201 206.76 59.4901 207.86C59.1801 208.52 58.8801 209.18 58.5801 209.86C57.8401 211.507 57.1168 213.173 56.4101 214.86C56.1901 215.38 55.9801 215.91 55.7601 216.43C55.2301 217.7 54.7101 218.97 54.2001 220.25C53.9301 220.92 53.6701 221.59 53.4101 222.25C52.9101 223.51 52.4101 224.78 51.9601 226.05C51.7501 226.6 51.5401 227.15 51.3401 227.7C50.7134 229.453 50.0968 231.207 49.4901 232.96L48.9301 234.66C48.4901 235.993 48.0601 237.327 47.6401 238.66L47.0401 240.57C46.5701 242.11 46.1101 243.65 45.6701 245.2C45.5701 245.53 45.4701 245.86 45.3801 246.2C44.8601 248.04 44.3601 249.887 43.8801 251.74C43.7201 252.33 43.5801 252.93 43.4301 253.52C43.0801 254.91 42.7401 256.3 42.4301 257.7L42.0101 259.45C41.5801 261.35 41.1601 263.25 40.7701 265.16L40.6201 265.93C40.2801 267.63 39.9468 269.33 39.6201 271.03C39.5101 271.64 39.4101 272.24 39.3001 272.85C39.0401 274.34 38.7901 275.85 38.5601 277.35C38.4801 277.86 38.3901 278.35 38.3201 278.87C38.0201 280.82 37.7501 282.78 37.4901 284.75L37.3401 286.05C37.1401 287.64 36.9601 289.24 36.7901 290.84C36.7301 291.44 36.6601 292.04 36.6001 292.65C36.4401 294.33 36.2901 296.02 36.1501 297.71C36.1501 298.06 36.0901 298.4 36.0701 298.71C35.9234 300.71 35.7934 302.727 35.6801 304.76C35.6801 305.29 35.6801 305.83 35.6101 306.36C35.5434 307.933 35.4834 309.503 35.4301 311.07C35.4301 311.66 35.4301 312.25 35.4301 312.84C35.4301 314.89 35.3501 316.95 35.3501 319.01C35.3501 319.01 35.3501 319.08 35.3501 319.11C35.3501 321.33 35.3501 323.53 35.4301 325.73C35.4301 326.49 35.4901 327.25 35.5101 328.01C35.5601 329.48 35.6101 330.95 35.6801 332.42C35.6801 333.31 35.7901 334.19 35.8401 335.08C35.9201 336.41 35.9901 337.74 36.0901 339.08C36.1601 340.08 36.2501 340.97 36.3301 341.91C36.4401 343.17 36.5401 344.43 36.6701 345.68C36.7601 346.68 36.8801 347.62 36.9801 348.59C37.1201 349.8 37.2501 351.02 37.4001 352.23C37.5201 353.23 37.6601 354.23 37.7901 355.18C37.9501 356.36 38.1101 357.55 38.2901 358.73C38.4401 359.73 38.6001 360.73 38.7601 361.73C38.9401 362.89 39.1301 364.06 39.3301 365.22C39.5101 366.22 39.6901 367.22 39.8801 368.22C40.0901 369.37 40.3101 370.52 40.5301 371.66C40.7501 372.8 40.9401 373.66 41.1501 374.66C41.3901 375.8 41.6301 376.93 41.8901 378.06C42.1501 379.19 42.3301 380.06 42.5701 380.99C42.8301 382.12 43.1101 383.24 43.3901 384.35C43.6701 385.46 43.8801 386.3 44.1301 387.26C44.4301 388.38 44.7301 389.49 45.0401 390.6C45.3001 391.6 45.5701 392.52 45.8501 393.47C46.1701 394.58 46.5001 395.68 46.8501 396.78C47.2001 397.88 47.4301 398.67 47.7301 399.62C48.0301 400.57 48.4301 401.81 48.7901 402.9C49.1501 403.99 49.4101 404.77 49.7301 405.7C50.1101 406.79 50.4901 407.88 50.8801 408.97C51.2101 409.88 51.5301 410.8 51.8801 411.71L53.1201 414.98C53.4701 415.87 53.8101 416.77 54.1201 417.66C54.5601 418.75 55.0101 419.85 55.4601 420.94C55.8201 421.8 56.1701 422.67 56.5401 423.53C57.0101 424.65 57.5401 425.75 57.9901 426.86C58.3601 427.68 58.7201 428.51 59.0901 429.33C59.6101 430.49 60.1601 431.63 60.6901 432.77L61.7701 435.07C62.3801 436.33 63.0101 437.57 63.6401 438.82C63.9601 439.45 64.2601 440.09 64.5901 440.72C66.5101 444.46 68.5101 448.15 70.5901 451.79C70.8801 452.26 71.2501 452.87 71.6101 453.48Z" fill="#F3AB98"/>
<path d="M35.2502 319C35.2502 171.68 154.68 52.25 302 52.25C449.32 52.25 568.75 171.68 568.75 319C568.788 358.694 559.949 397.895 542.88 433.731C525.811 469.568 500.945 501.135 470.1 526.12C464.627 530.573 458.98 534.803 453.16 538.81C393 577 317 577 248.39 570.89C241.73 569.89 235.09 568.63 228.5 567.18C202.17 561.38 176.68 552.43 153.13 539.38C147.31 535.793 141.667 531.92 136.2 527.76C130.706 523.576 125.432 519.11 120.4 514.38C115.64 509.96 111.044 505.367 106.61 500.6C60.6674 451.299 35.1614 386.39 35.2502 319V319Z" stroke="#592D3D" stroke-width="12" stroke-miterlimit="10"/>
<path d="M188.12 577.72C97.35 577.72 116.12 691.96 115.25 819H188.12V577.72Z" fill="#FDD2B2"/>
<path d="M169.23 650.87L192 689L180.61 819H148.88C148.07 638.73 169.23 650.87 169.23 650.87Z" fill="#F3AB98"/>
<path d="M421.47 889H182.53C179.01 888.997 175.635 887.597 173.146 885.107C170.658 882.616 169.26 879.24 169.26 875.72V591C169.26 587.479 170.658 584.103 173.146 581.613C175.635 579.123 179.01 577.722 182.53 577.72H415.76C428.85 577.72 434.76 585.38 434.76 597.6V875.68C434.766 877.428 434.426 879.16 433.76 880.776C433.094 882.393 432.116 883.862 430.881 885.099C429.647 886.337 428.18 887.319 426.565 887.988C424.95 888.657 423.218 889.001 421.47 889V889Z" fill="#FDD2B2"/>
<path d="M431.05 585.62C430.053 584.394 429.21 583.051 428.54 581.62C426.139 579.739 423.282 578.527 420.26 578.11C418.771 577.88 417.267 577.766 415.76 577.77H182.53C179.019 577.773 175.651 579.166 173.164 581.646C170.677 584.125 169.273 587.488 169.26 591C198.26 601.42 252.55 607.24 302 607.24C365.06 607.24 406.38 597.89 431.05 585.62Z" fill="#F3AB98"/>
<path d="M412 577.72C502.76 577.72 484 691.96 484.87 819H434.74" stroke="#592D3D" stroke-width="12" stroke-miterlimit="10" stroke-linecap="square"/>
<path d="M188.12 577.72C97.35 577.72 116.12 691.96 115.25 819H165.32" stroke="#592D3D" stroke-width="12" stroke-miterlimit="10" stroke-linecap="square"/>
<path d="M182.53 577.82L415.76 577.72" stroke="#592D3D" stroke-width="12" stroke-miterlimit="10"/>
<path d="M182.53 889H299.15C190 889 198.24 657.82 169.26 657.82V875.68C169.255 877.426 169.594 879.157 170.258 880.772C170.923 882.387 171.899 883.855 173.132 885.092C174.364 886.33 175.829 887.312 177.442 887.982C179.054 888.653 180.783 888.999 182.53 889V889Z" fill="#F3AB98"/>
<path d="M163.26 679.85C163.07 676.18 163.15 672.51 163.31 668.85C163.47 665.19 163.78 661.5 164.17 657.85C164.37 656.01 164.57 654.18 164.82 652.34C165.07 650.5 165.31 648.67 165.67 646.83C166.379 643.022 167.586 639.324 169.26 635.83C170.934 639.324 172.141 643.022 172.85 646.83C173.21 648.67 173.47 650.5 173.7 652.34C173.93 654.18 174.15 656.01 174.35 657.85C174.73 661.52 175.03 665.19 175.2 668.85C175.37 672.51 175.45 676.19 175.26 679.85H163.26Z" fill="#592D3D"/>
<path d="M434.74 689V697C435 731 435 766 434.74 799.75C434.74 802.62 434.74 805.47 434.74 808.28V875.69C434.744 877.436 434.404 879.165 433.739 880.779C433.074 882.393 432.097 883.86 430.865 885.096C429.632 886.333 428.168 887.314 426.556 887.984C424.944 888.653 423.216 888.999 421.47 889H182.53C179.01 888.997 175.635 887.597 173.146 885.107C170.658 882.617 169.26 879.24 169.26 875.72V817.52C169.26 815.01 169.26 812.45 169.26 809.87C169.01 775 169.01 740 169.26 704.57V679.85" stroke="#592D3D" stroke-width="12" stroke-miterlimit="10"/>
<path d="M428.74 689C428.55 684.83 428.64 680.65 428.8 676.47C428.96 672.29 429.27 668.12 429.65 663.94C429.85 661.85 430.06 659.76 430.3 657.67C430.54 655.58 430.79 653.5 431.15 651.41C431.847 647.106 433.052 642.9 434.74 638.88C436.428 642.9 437.633 647.106 438.33 651.41C438.69 653.5 438.95 655.59 439.18 657.67C439.41 659.75 439.63 661.85 439.83 663.94C440.21 668.12 440.52 672.29 440.68 676.47C440.84 680.65 440.93 684.83 440.74 689H428.74Z" fill="#592D3D"/>
<path d="M372.68 661.45C372.9 652 384.9 648 390.9 654C391.875 654.995 392.645 656.173 393.165 657.466C393.685 658.759 393.945 660.141 393.93 661.535C393.916 662.928 393.627 664.305 393.081 665.587C392.534 666.868 391.741 668.03 390.745 669.005C389.75 669.98 388.572 670.75 387.279 671.269C385.986 671.789 384.604 672.05 383.211 672.035C381.817 672.021 380.44 671.732 379.159 671.186C377.877 670.639 376.715 669.845 375.74 668.85C374.766 667.88 373.995 666.727 373.469 665.456C372.944 664.186 372.676 662.825 372.68 661.45V661.45Z" fill="#592D3D"/>
<path d="M210.11 661.15C209.9 653 218.9 649 224.9 652C232.9 655 232.9 666 224.9 671C220.9 673 216.9 671 213.15 668.52C212.183 667.552 211.417 666.403 210.895 665.138C210.373 663.874 210.107 662.518 210.11 661.15V661.15Z" fill="#592D3D"/>
<path d="M302 650.77C302.715 652.655 303.218 654.614 303.5 656.61C303.797 658.543 303.961 660.494 303.99 662.45L304.29 674.14C304.38 678.03 304.5 681.93 304.54 685.83L304.71 697.5C304.94 713.07 304.93 728.66 304.99 744.24C305.05 759.82 305.17 775.4 304.99 790.98C304.9 798.77 304.69 806.56 304.46 814.35C304.36 818.24 304.17 822.14 303.79 826.03C303.45 829.96 302.859 833.865 302.02 837.72C301.181 833.865 300.59 829.96 300.25 826.03C299.87 822.14 299.68 818.24 299.58 814.35C299.35 806.56 299.14 798.77 299.05 790.98C298.85 775.4 299.05 759.82 299.05 744.24C299.05 728.66 299.05 713.09 299.23 697.51L299.4 685.81L299.73 674.13L300.06 662.45C300.097 660.494 300.264 658.543 300.56 656.61C300.822 654.616 301.305 652.657 302 650.77V650.77Z" fill="#F3AB98"/>
<path d="M227.22 702C228.703 701.295 230.274 700.791 231.89 700.5C233.435 700.21 234.999 700.043 236.57 700L245.92 699.67L264.62 699.26C277.08 699.07 289.53 699.02 302 698.99C314.47 698.96 326.93 698.83 339.39 698.99C345.62 699.08 351.85 699.29 358.09 699.52C361.2 699.63 364.32 699.82 367.43 700.19C370.588 700.54 373.714 701.135 376.78 701.97C373.716 702.81 370.589 703.402 367.43 703.74C364.32 704.12 361.2 704.31 358.09 704.41C351.85 704.64 345.62 704.84 339.39 704.93C326.93 705.12 314.47 704.93 302 704.93C289.53 704.93 277.07 704.93 264.6 704.78C258.37 704.72 252.14 704.52 245.92 704.28L236.57 703.94C235.003 703.898 233.441 703.73 231.9 703.44C230.283 703.17 228.709 702.686 227.22 702V702Z" fill="#F3AB98"/>
<path d="M244.41 733.38C245.591 732.817 246.853 732.442 248.15 732.27C249.349 732.101 250.561 732.051 251.77 732.12C254.16 732.22 256.55 732.28 258.94 732.33C263.72 732.44 268.5 732.48 273.28 732.5C282.91 732.5 292.37 732.58 302.04 732.29C311.71 732 321.3 731.86 330.92 731.9C335.73 731.9 340.54 732.03 345.34 732.14C347.757 732.173 350.17 732.33 352.57 732.61C355.037 732.883 357.472 733.395 359.84 734.14C357.528 735.048 355.129 735.719 352.68 736.14C350.296 736.57 347.888 736.857 345.47 737C340.65 737.35 335.83 737.65 331.02 737.82C321.38 738.18 311.75 738.14 302.14 738.27C297.33 738.27 292.53 738.49 287.66 738.37C282.79 738.25 277.97 738.24 273.14 738.06C268.31 737.88 263.46 737.48 258.64 736.98C256.22 736.71 253.82 736.41 251.41 736.08C250.193 735.931 248.996 735.65 247.84 735.24C246.599 734.82 245.439 734.191 244.41 733.38V733.38Z" fill="#F3AB98"/>
<path d="M240.93 768.87C242.117 768.172 243.406 767.666 244.75 767.37C246.004 767.078 247.284 766.914 248.57 766.88L256.2 766.56C261.29 766.38 266.39 766.23 271.48 766.15C281.66 766 291.84 766 302 766C312.16 766 322.36 765.83 332.54 766C337.63 766.09 342.72 766.3 347.81 766.53C350.363 766.616 352.91 766.836 355.44 767.19C358.045 767.547 360.61 768.153 363.1 769C360.619 769.831 358.064 770.423 355.47 770.77C352.938 771.132 350.387 771.356 347.83 771.44C342.74 771.67 337.65 771.88 332.56 771.97C322.38 772.17 312.19 772.03 302.01 771.97C291.83 771.91 281.65 771.91 271.47 771.72C266.38 771.62 261.28 771.44 256.19 771.23L248.56 770.86C247.273 770.821 245.994 770.653 244.74 770.36C243.399 770.07 242.112 769.567 240.93 768.87V768.87Z" fill="#F3AB98"/>
<path d="M349.85 666.98L307.72 632.61L382.35 577.82H221.65L296.28 632.61L254.15 666.98L216.52 610.48V688.96H390.78V605.52L349.85 666.98Z" fill="#F3AB98"/>
<path d="M418.66 577.16L375.93 577.26C375.709 581.777 375.231 586.278 374.5 590.74C374.029 592.882 373.449 594.998 372.76 597.08C370.42 603.57 355.5 609.08 351.27 613.81C349.868 615.384 348.365 616.863 346.77 618.24C321.6 636.44 281.6 637.44 257.29 617.66C254.668 615.371 252.286 612.821 250.18 610.05C245.95 604.49 233.78 598.46 232.08 591.11C231.598 588.935 231.237 586.735 231 584.52C230.758 582.262 230.638 579.992 230.64 577.72C230.64 577.72 185.43 577.16 185.43 577.16C181.91 577.16 178.533 578.558 176.043 581.046C173.553 583.535 172.153 586.91 172.15 590.43V875.12C172.153 878.641 173.553 882.016 176.043 884.504C178.533 886.992 181.91 888.39 185.43 888.39H424.36C427.879 888.39 431.255 886.992 433.743 884.503C436.232 882.015 437.63 878.64 437.63 875.12V597C437.63 584.82 431.75 577.16 418.66 577.16Z" fill="white"/>
<path d="M414.84 577.16C478.38 577.16 503.36 620.55 493.74 849.16C475 855.86 437.83 853.75 437.83 853.75L414.84 577.16Z" fill="white"/>
<path d="M253.06 674.4L301.51 650.31L350.09 674.4L313.03 631.38L269.14 632.21L253.06 674.4Z" fill="#E2E2E2"/>
<path d="M437.63 650.31C437.63 650.31 414.84 734.85 418.32 884.31L451.53 853.31L455.11 715.73C449.49 643.5 437.63 650.31 437.63 650.31Z" fill="#E2E2E2"/>
<path d="M191 577.16C129.22 577.16 102.12 633.61 110.25 822.64C132.67 832.55 166.44 828.22 166.44 828.22L191 577.16Z" fill="white"/>
<path d="M108.94 776.49C109.113 790.13 109.517 804.623 110.15 819.97C125.42 820.7 153.84 820.85 167.26 819.97L171.44 777.16C160.67 775.9 125.66 775.49 108.94 776.49Z" fill="#E2E2E2"/>
<path d="M172.12 650.31L171.62 828L158.27 828.9C155.3 679.85 172.12 650.31 172.12 650.31Z" fill="#E2E2E2"/>
<path d="M414.84 577.16C482.26 577.16 493.29 633.44 493.74 710.94V849.16C493.74 849.16 443.74 854.69 437.83 853.75L437.73 711.64" stroke="#592D3D" stroke-width="12" stroke-miterlimit="10" stroke-linecap="square"/>
<path d="M191 577.16C165.27 577.16 147.48 585.28 135.29 599.6C115.84 622.47 110.66 661.14 110.29 707.87V831.64C122.35 834.96 171.65 828 171.65 828L172.14 709.4" stroke="#592D3D" stroke-width="12" stroke-miterlimit="10" stroke-linecap="square"/>
<path d="M174.6 830.24C172.77 832.85 100.83 832.16 99.9301 830.24C99.0301 828.32 97.7401 792.74 99.9301 789.24C101.73 786.36 172.04 786.97 174.6 789.24C177.16 791.51 176.43 827.63 174.6 830.24Z" fill="white" stroke="#592D3D" stroke-width="12" stroke-miterlimit="10" stroke-linecap="square"/>
<path d="M185.43 888.39H302C192.81 888.39 201.09 657.25 172.11 657.25V875.12C172.111 876.866 172.457 878.596 173.127 880.208C173.798 881.821 174.78 883.285 176.017 884.518C177.254 885.751 178.723 886.727 180.338 887.392C181.953 888.056 183.683 888.395 185.43 888.39Z" fill="#E2E2E2"/>
<path d="M166.15 679.29C165.96 675.62 166.04 671.94 166.21 668.29C166.38 664.64 166.68 660.95 167.06 657.29C167.26 655.46 167.47 653.62 167.71 651.78C167.95 649.94 168.2 648.11 168.56 646.28C169.268 642.472 170.475 638.773 172.15 635.28C173.825 638.773 175.032 642.472 175.74 646.28C176.1 648.11 176.36 649.95 176.59 651.78C176.82 653.61 177.04 655.46 177.24 657.29C177.627 660.97 177.913 664.637 178.1 668.29C178.26 671.96 178.34 675.64 178.1 679.29H166.15Z" fill="#592D3D"/>
<path d="M437.63 688.4V696.4C437.89 730.4 437.89 765.4 437.63 799.16C437.63 802.03 437.63 804.88 437.63 807.69V875.1C437.63 878.619 436.232 881.995 433.743 884.483C431.255 886.972 427.879 888.37 424.36 888.37H185.43C181.91 888.37 178.533 886.972 176.043 884.484C173.553 881.996 172.153 878.62 172.15 875.1V809.3C171.89 774.44 171.89 739.44 172.15 704V679.29" stroke="#592D3D" stroke-width="12" stroke-miterlimit="10"/>
<path d="M499.42 789.24C501.64 791.5 501.01 827.63 499.42 830.24C497.83 832.85 435.42 832.16 434.65 830.24C433.88 828.32 432.75 792.74 434.65 789.24C434.92 788.74 436.93 788.35 440.1 788.06" fill="white"/>
<path d="M499.42 789.24C501.64 791.5 501.01 827.63 499.42 830.24C497.83 832.85 435.42 832.16 434.65 830.24C433.88 828.32 432.75 792.74 434.65 789.24C434.92 788.74 436.93 788.35 440.1 788.06" stroke="#592D3D" stroke-width="12" stroke-miterlimit="10" stroke-linecap="square"/>
<path d="M480.92 787.3C484.72 787.6 495.92 786.12 496.34 786.54Z" fill="white"/>
<path d="M480.92 787.3C481.502 786.543 482.13 785.822 482.8 785.14C483.345 784.595 483.941 784.102 484.58 783.67C485.155 783.288 485.761 782.954 486.39 782.67C487 782.38 487.61 782.13 488.22 781.88C489.449 781.383 490.716 780.989 492.01 780.7C492.669 780.554 493.337 780.451 494.01 780.39C494.37 780.39 494.74 780.39 495.18 780.39C495.43 780.39 495.64 780.39 496 780.39C496.12 780.39 496.44 780.39 496.71 780.46H497.06L497.55 780.57L497.8 780.63L498 780.69L498.57 780.9C499.317 781.226 499.996 781.691 500.57 782.27L504.77 786.56L496.12 795.04L492 790.67C492.54 791.236 493.19 791.685 493.91 791.99C494.09 792.07 494.27 792.13 494.45 792.19H494.62L494.81 792.24C494.934 792.281 495.061 792.311 495.19 792.33H495.38C495.48 792.33 495.64 792.33 495.6 792.33C495.56 792.33 495.53 792.33 495.45 792.33H494.7C494.13 792.33 493.51 792.33 492.88 792.33C491.562 792.252 490.251 792.075 488.96 791.8C488.29 791.65 487.62 791.5 486.96 791.31C486.274 791.127 485.605 790.886 484.96 790.59C484.215 790.238 483.516 789.794 482.88 789.27C482.119 788.73 481.456 788.064 480.92 787.3V787.3Z" fill="#592D3D"/>
<path d="M394.51 582.64L319.84 637.45L361.98 671.83L421.4 582.59L394.51 582.64Z" fill="#E2E2E2"/>
<path d="M431.63 688.4C431.44 684.22 431.53 680.04 431.69 675.87C431.85 671.7 432.16 667.51 432.55 663.34C432.75 661.25 432.95 659.16 433.19 657.07C433.43 654.98 433.68 652.89 434.05 650.8C434.741 646.496 435.943 642.29 437.63 638.27C439.325 642.288 440.53 646.494 441.22 650.8C441.58 652.89 441.85 654.98 442.07 657.07C442.29 659.16 442.52 661.25 442.72 663.34C443.11 667.51 443.41 671.69 443.57 675.87C443.73 680.05 443.83 684.22 443.63 688.4H431.63Z" fill="#592D3D"/>
<path d="M185.43 577.26L418.66 577.16" stroke="#592D3D" stroke-width="12" stroke-miterlimit="10"/>
<path d="M331.39 654.55L309.04 632.21L286.7 654.55L297.68 665.53L287.96 772.16L308.7 788.33L330.12 772.16L320.41 665.53L331.39 654.55Z" fill="#E2E2E2"/>
<path d="M302.04 632.21V888.39" stroke="#592D3D" stroke-width="6" stroke-miterlimit="10" stroke-linecap="square"/>
<path d="M302.04 632.21L324.39 647.55L302.04 669.9L279.7 647.55L302.04 632.21Z" fill="#85C5E5"/>
<path d="M221.62 577.8C221.62 577.8 264.89 617.14 296.28 632.61C281 657.82 254.15 667 254.15 667L194.72 577.77L221.62 577.8Z" fill="white" stroke="#592D3D" stroke-width="12" stroke-miterlimit="10"/>
<path d="M382.38 577.8C382.38 577.8 343 619 307.72 632.61C317.72 652.89 349.85 666.98 349.85 666.98L409.28 577.75L382.38 577.8Z" fill="white" stroke="#592D3D" stroke-width="12" stroke-miterlimit="10"/>
<path d="M280.96 765.16L301.7 781.33L323.12 765.16L313.12 655.38H290.96L280.96 765.16Z" fill="#85C5E5"/>
<path d="M279.7 647.55L290.68 658.53L280.96 765.16L301.7 781.33L323.12 765.16L313.41 658.53L324.39 647.55" stroke="#592D3D" stroke-width="8" stroke-miterlimit="10"/>
<path d="M440.1 788.06C447.61 787.35 461.61 787.17 474.1 787.39Z" fill="white"/>
<path d="M439.54 782.08C442.468 781.667 445.425 781.51 448.38 781.61C451.28 781.68 454.16 781.91 457.04 782.26C458.47 782.44 459.91 782.63 461.34 782.87C462.784 783.081 464.215 783.365 465.63 783.72C468.65 784.455 471.524 785.695 474.13 787.39C471.486 788.986 468.613 790.167 465.61 790.89C464.2 791.25 462.79 791.52 461.38 791.75C459.97 791.98 458.57 792.22 457.17 792.44C454.37 792.86 451.58 793.22 448.82 793.44C446.06 793.66 443.3 793.94 440.66 793.98L434.66 794.08L433.66 782.95L439.54 782.08Z" fill="#592D3D"/>
<path d="M317.77 806.73C320.421 806.73 322.57 804.581 322.57 801.93C322.57 799.279 320.421 797.13 317.77 797.13C315.119 797.13 312.97 799.279 312.97 801.93C312.97 804.581 315.119 806.73 317.77 806.73Z" fill="#592D3D"/>
<path d="M292.89 655.19C292.84 655.13 292.89 655.19 292.89 655.19L292.96 655.24C293.021 655.273 293.078 655.313 293.13 655.36L293.51 655.65C293.76 655.86 294.03 656.07 294.29 656.3C294.82 656.75 295.38 657.23 295.99 657.69C296.6 658.15 297.26 658.59 297.99 659.11C298.943 659.827 299.848 660.605 300.7 661.44C299.987 662.604 298.874 663.467 297.57 663.87C296.367 664.204 295.109 664.296 293.87 664.14C292.612 664.018 291.384 663.679 290.24 663.14C289.658 662.862 289.105 662.527 288.59 662.14C288.322 661.944 288.065 661.734 287.82 661.51C287.7 661.4 287.57 661.28 287.45 661.15L287.25 660.94L287 660.65L292.89 655.19Z" fill="#592D3D"/>
<path d="M143.06 409.04C154.636 409.04 164.02 399.656 164.02 388.08C164.02 376.504 154.636 367.12 143.06 367.12C131.484 367.12 122.1 376.504 122.1 388.08C122.1 399.656 131.484 409.04 143.06 409.04Z" fill="#592D3D"/>
<path d="M142.93 405C144.72 404.9 146.72 404.74 148.63 404.54C150.54 404.34 152.49 404.1 154.42 403.8C156.35 403.5 158.29 403.15 160.23 402.8C162.17 402.45 164.15 402.12 166.23 401.97C164.597 403.227 162.813 404.275 160.92 405.09C159.037 405.877 157.106 406.544 155.14 407.09C153.169 407.664 151.166 408.119 149.14 408.45C147.079 408.81 144.992 408.991 142.9 408.99L142.93 405Z" fill="#592D3D"/>
<path d="M463.77 409.04C475.346 409.04 484.73 399.656 484.73 388.08C484.73 376.504 475.346 367.12 463.77 367.12C452.194 367.12 442.81 376.504 442.81 388.08C442.81 399.656 452.194 409.04 463.77 409.04Z" fill="#592D3D"/>
<path d="M463.77 405C465.57 404.9 467.56 404.74 469.47 404.54C471.38 404.34 473.34 404.1 475.27 403.8C477.2 403.5 479.14 403.15 481.08 402.8C483.02 402.45 485 402.12 487.08 401.97C485.445 403.225 483.662 404.273 481.77 405.09C479.887 405.877 477.957 406.544 475.99 407.09C474.019 407.663 472.016 408.117 469.99 408.45C467.929 408.81 465.842 408.99 463.75 408.99L463.77 405Z" fill="#592D3D"/>
<path d="M245.14 440.86C245.14 421.96 358.86 424.8 358.86 440.86C358.86 455.94 352.87 470.403 342.206 481.066C331.543 491.73 317.08 497.72 302 497.72C286.92 497.72 272.457 491.73 261.794 481.066C251.131 470.403 245.14 455.94 245.14 440.86V440.86Z" fill="#592D3D"/>
<path d="M297 462C280.05 461 265.27 468.75 260.35 480.22C268.531 488.862 279.217 494.72 290.904 496.968C302.59 499.216 314.687 497.741 325.49 492.75C327.737 491.713 329.912 490.527 332 489.2C331.08 475.09 316.06 463.18 297 462Z" fill="#F28195"/>
<path d="M245.14 440.86C245.14 421.96 358.86 424.8 358.86 440.86C358.86 455.94 352.87 470.403 342.206 481.066C331.543 491.73 317.08 497.72 302 497.72C286.92 497.72 272.457 491.73 261.794 481.066C251.131 470.403 245.14 455.94 245.14 440.86V440.86Z" stroke="#592D3D" stroke-width="6" stroke-miterlimit="10"/>
<path d="M280.12 451.46C280.57 451.35 280.75 451.3 281.04 451.25L281.79 451.11C282.28 451.02 282.79 450.97 283.25 450.93C284.21 450.832 285.176 450.798 286.14 450.83C288.095 450.872 290.038 451.144 291.93 451.64C295.892 452.643 299.483 454.76 302.28 457.74C304.911 460.57 306.675 464.097 307.36 467.9C307.985 471.407 307.51 475.023 306 478.25C303.93 475.32 302.34 472.69 300.68 470.49C299.933 469.435 299.114 468.433 298.23 467.49C297.422 466.661 296.516 465.936 295.53 465.33C293.663 464.211 291.581 463.499 289.42 463.24C288.286 463.094 287.144 463.013 286 463C285.41 463 284.82 463 284.24 463.05L283.39 463.11H283C282.9 463.11 282.7 463.11 282.77 463.11L280.12 451.46Z" fill="#592D3D"/>
<path d="M360.73 218.34C347.87 242.34 300.73 255.78 296.9 249.76C292.61 243.03 334.75 194.44 310.8 143.62" fill="#F3AB98"/>
<path d="M586 161.85C580.9 156.75 554.94 163.68 528.81 161.62C503.207 126.848 469.934 98.4451 431.575 78.6154C393.217 58.7857 350.804 48.0631 307.63 47.28C305.19 26.8 306.88 9.59997 305.02 7.17997C302.53 3.95997 289.53 19.86 286.15 38.18C274.24 23.18 254.01 15.18 253.43 19.38C253.05 22.06 260.87 33.47 268.24 49.28C156.64 62.75 65.1601 141.54 33.1601 246.28C19.3001 258.2 6.30007 266.62 6.16007 271.97C5.89007 281.89 45.4701 281.33 62.7401 279.79V279.73C123.39 277.73 241.74 265.95 299.16 206.84C293.64 225.93 283.47 240 285.43 243C288.43 247.67 323.75 237.81 335.5 219.76C383.5 239.35 474.99 262.92 554.5 203.6L554.28 203.17C568.77 191.06 592.35 168.25 586 161.85Z" fill="#A56941"/>
<path d="M528.85 167.62C523.45 167.86 518.19 167.73 512.85 167.48C507.51 167.23 502.26 166.81 496.98 166.22C494.34 165.93 491.7 165.62 489.07 165.22C486.44 164.82 483.8 164.5 481.18 163.99C475.841 163.03 470.619 161.508 465.6 159.45C470.846 158.107 476.2 157.23 481.6 156.83C484.23 156.61 486.86 156.46 489.49 156.35L497.37 156.01C502.62 155.79 507.86 155.67 513.09 155.56C518.32 155.45 523.57 155.44 528.71 155.56L528.85 167.62Z" fill="#592D3D"/>
<path d="M38.6001 249C38.6001 249 38.6001 249.24 38.6001 249.39L38.4801 249.92L38.2001 251.03C37.9901 251.78 37.7701 252.55 37.5401 253.32C37.0701 254.87 36.5401 256.46 36.0001 258.07C35.4601 259.68 34.9401 261.35 34.2301 263.07C33.8327 263.968 33.3715 264.837 32.8501 265.67C32.2511 266.658 31.5578 267.586 30.7801 268.44C29.0939 266.964 27.8133 265.081 27.0601 262.97C26.7172 262.029 26.4628 261.058 26.3001 260.07C26.0901 259.07 25.9901 258.07 25.8701 257.12C25.6696 255.125 25.6696 253.115 25.8701 251.12C25.9677 250.111 26.1281 249.109 26.3501 248.12C26.4701 247.62 26.6001 247.12 26.7601 246.61C26.8367 246.349 26.9268 246.092 27.0301 245.84C27.1301 245.56 27.2101 245.36 27.3901 244.94L38.6001 249Z" fill="#592D3D"/>
<path d="M62.7401 279.82V279.76C79.7401 279.2 101.37 277.86 124.88 274.92C127.51 219 146.88 153.34 190.8 76.48L184 73.23C148.131 89.8957 116.166 113.917 90.1798 143.734C64.1937 173.552 44.767 208.499 33.1601 246.31C19.3001 258.23 6.30007 266.65 6.16007 272C5.89007 281.92 45.4701 281.36 62.7401 279.82Z" fill="#8D5638"/>
<path d="M586 161.85C580.9 156.75 554.94 163.68 528.81 161.62C503.207 126.848 469.934 98.4451 431.575 78.6154C393.217 58.7857 350.804 48.0631 307.63 47.28C305.19 26.8 306.88 9.59997 305.02 7.17997C302.53 3.95997 289.53 19.86 286.15 38.18C274.24 23.18 254.01 15.18 253.43 19.38C253.05 22.06 260.87 33.47 268.24 49.28C156.64 62.75 65.1601 141.54 33.1601 246.28C19.3001 258.2 6.30007 266.62 6.16007 271.97C5.89007 281.89 45.4701 281.33 62.7401 279.79V279.73C123.39 277.73 241.74 265.95 299.16 206.84C293.64 225.93 283.47 240 285.43 243C288.43 247.67 323.75 237.81 335.5 219.76C383.5 239.35 474.99 262.92 554.5 203.6L554.28 203.17C568.77 191.06 592.35 168.25 586 161.85Z" stroke="#592D3D" stroke-width="12" stroke-miterlimit="10"/>
<path d="M307.93 63.3098C293.686 64.1303 279.502 65.7798 265.45 68.2498C261.97 68.9198 258.5 69.6598 255.01 70.2998C251.52 70.9398 248.11 71.9098 244.66 72.7098L234.4 75.4298C231 76.4298 227.63 77.5098 224.25 78.5498C210.767 82.898 197.594 88.1533 184.82 94.2798C171.985 100.51 159.545 107.524 147.57 115.28C158.236 105.552 170.011 97.1135 182.65 90.1398C195.3 83.0769 208.618 77.2852 222.41 72.8498C225.89 71.8498 229.35 70.7598 232.83 69.7998C236.31 68.8398 239.83 67.9798 243.38 67.1998C246.93 66.4198 250.48 65.7998 254.04 65.1998C257.6 64.5998 261.19 64.1298 264.77 63.6798C279.096 61.9175 293.576 61.7934 307.93 63.3098Z" fill="white"/>
<path d="M402.89 279.57C413.933 276.755 425.119 274.535 436.4 272.92L433.74 273.27C446.92 271.53 460.28 271.02 473.49 272.79L470.83 272.43C474.1 272.89 477.37 273.43 480.65 273.85L477.99 273.49C487.944 274.854 497.794 276.896 507.47 279.6C512.47 280.99 518.57 277.87 519.77 272.6C520.424 270.043 520.059 267.331 518.754 265.037C517.448 262.742 515.303 261.044 512.77 260.3C501.423 257.193 489.861 254.926 478.18 253.52L480.84 253.88C469.808 251.922 458.585 251.268 447.4 251.93C436.276 252.66 425.218 254.181 414.31 256.48C408.69 257.61 403.11 258.91 397.55 260.28C392.47 261.53 388.93 267.54 390.55 272.58C391.294 275.113 392.992 277.258 395.287 278.564C397.581 279.87 400.292 280.234 402.85 279.58L402.89 279.57Z" fill="#592D3D"/>
<path d="M88.1399 279.6C97.7241 276.819 107.501 274.75 117.39 273.41L114.73 273.77C131.786 271.537 149.061 271.563 166.11 273.85L163.45 273.5C173.395 274.856 183.235 276.894 192.9 279.6C197.9 281 204 277.87 205.2 272.6C205.854 270.042 205.489 267.331 204.184 265.037C202.878 262.742 200.733 261.044 198.2 260.3C183.757 256.282 168.951 253.703 154 252.6C129.993 251.037 105.896 253.646 82.7799 260.31C80.2732 261.035 78.1313 262.678 76.7799 264.91C75.4445 267.244 75.0851 270.012 75.7799 272.61C77.4299 277.72 82.6899 281.15 88.0799 279.61L88.1399 279.6Z" fill="#592D3D"/>
<path opacity="0.2" d="M140.9 460.86C192.434 460.86 234.21 419.084 234.21 367.55C234.21 316.017 192.434 274.24 140.9 274.24C89.3661 274.24 47.5898 316.017 47.5898 367.55C47.5898 419.084 89.3661 460.86 140.9 460.86Z" fill="white"/>
<path opacity="0.15" d="M546.47 425.82C534.351 443.565 516.999 457.089 496.83 464.505C476.662 471.921 454.683 472.861 433.955 467.194C413.227 461.527 394.783 449.535 381.193 432.889C367.603 416.243 359.545 395.773 358.14 374.33C321.14 359.73 283.71 359.86 243.95 374.72C242.105 400.793 230.458 425.2 211.349 443.034C192.24 460.868 167.088 470.806 140.95 470.85C108.47 470.85 64.9502 434.35 69.9502 442.46C83.9502 463.15 116.95 478.91 142.49 478.91C197.04 478.91 240.36 439.62 244.05 385.99C283.81 371.14 321.28 370.99 358.24 385.6C361.74 439.42 406.63 479.13 461.31 479.13C506 479.13 531.4 445 546.47 425.82Z" fill="black"/>
<path opacity="0.4" d="M122 467.75L245.07 344.67C242.366 338.571 239.013 332.781 235.07 327.4L104.72 457.76C110.106 461.7 115.899 465.049 122 467.75Z" fill="white"/>
<path d="M140.9 460.86C192.434 460.86 234.21 419.084 234.21 367.55C234.21 316.017 192.434 274.24 140.9 274.24C89.3661 274.24 47.5898 316.017 47.5898 367.55C47.5898 419.084 89.3661 460.86 140.9 460.86Z" stroke="#592D3D" stroke-width="20" stroke-miterlimit="10"/>
<path d="M461.21 460.86C512.744 460.86 554.52 419.084 554.52 367.55C554.52 316.017 512.744 274.24 461.21 274.24C409.676 274.24 367.9 316.017 367.9 367.55C367.9 419.084 409.676 460.86 461.21 460.86Z" stroke="#592D3D" stroke-width="20" stroke-miterlimit="10"/>
<path d="M234.77 367.55C279.97 349.24 324.38 348.55 367.91 367.55" stroke="#592D3D" stroke-width="20" stroke-miterlimit="10"/>
<path d="M116.7 311.5C118.76 318 110.76 323 104.76 324C98.7601 324 94.7601 320 92.7601 315C91.7601 310 92.7601 305 96.7601 302C101.76 300 108.76 298 113.21 303.13C114.321 304.221 115.203 305.524 115.802 306.962C116.402 308.399 116.707 309.942 116.7 311.5Z" fill="white"/>
<path d="M127.37 307.67C126.76 312 120.76 312 119.76 308C119.76 305 120.76 304 123.61 303.9C124.105 303.9 124.595 303.997 125.051 304.187C125.508 304.377 125.923 304.655 126.273 305.005C126.622 305.355 126.899 305.771 127.087 306.228C127.275 306.685 127.372 307.175 127.37 307.67V307.67Z" fill="white"/>
<path opacity="0.2" d="M461.21 460.86C512.744 460.86 554.52 419.084 554.52 367.55C554.52 316.017 512.744 274.24 461.21 274.24C409.676 274.24 367.9 316.017 367.9 367.55C367.9 419.084 409.676 460.86 461.21 460.86Z" fill="white"/>
<path opacity="0.4" d="M447.19 459.81L553.47 353.52C552.894 349.735 552.089 345.988 551.06 342.3L436 457.4C439.678 458.429 443.415 459.234 447.19 459.81V459.81Z" fill="white"/>
<path d="M461.21 460.86C512.744 460.86 554.52 419.084 554.52 367.55C554.52 316.017 512.744 274.24 461.21 274.24C409.676 274.24 367.9 316.017 367.9 367.55C367.9 419.084 409.676 460.86 461.21 460.86Z" stroke="#592D3D" stroke-width="20" stroke-miterlimit="10"/>
<path d="M437 311.5C439.06 318 431.06 323 425.06 324C419.06 324 415.06 320 413.06 315C412.06 310 413.06 305 417.06 302C422.06 300 429.06 298 433.51 303.13C434.619 304.223 435.499 305.526 436.099 306.963C436.698 308.4 437.004 309.943 437 311.5V311.5Z" fill="white"/>
<path d="M447.69 307.67C447.08 312 441.08 312 440.08 308C440.08 305 441.08 304 443.92 303.9C444.92 303.9 445.879 304.297 446.586 305.004C447.293 305.711 447.69 306.67 447.69 307.67Z" fill="white"/>
</g>
<defs>
<clipPath id="clip0_102_579">
<rect width="594" height="812" fill="white"/>
</clipPath>
</defs>
</svg>
